<svg xmlns="http://www.w3.org/2000/svg" width="1500" height="2000" viewBox="0 0 1500 2000">
<path d="M 1026 191 C 1025.92 189 1025.4 170.7 1025 167 C 1024.6 163.3 1021.08 146.21 1021 145 C 1020.92 143.79 1022.83 138.58 1023 138" fill="none" stroke="#000" stroke-width="2"/>
<path d="M 1026 191 C 1026.25 191.17 1028.86 192.42 1029 193 C 1029.14 193.58 1036.28 232.21 1038 240 C 1039.72 247.79 1052.32 296.6 1054 306 C 1055.68 315.4 1059.84 361.89 1060 363 C 1060.16 364.11 1062.88 367.89 1063 369 C 1063.12 370.11 1063.31 386.51 1063 390 C 1062.69 393.49 1058.5 419.13 1058 425 C 1057.5 430.87 1056.78 464.2 1056 472 C 1055.22 479.8 1044.87 567.85 1042 585 C 1039.13 602.15 1022.1 680.23 1020 687 C 1017.9 693.77 1003.05 718.18 999 724 C 994.95 729.82 914 839.56 908 848 C 902 856.44 875.06 898.29 874 900 C 872.94 901.71 870.15 909.35 869 911 C 867.85 912.65 847.08 938.67 844 943 C 840.92 947.33 828.42 967.75 827 970" fill="none" stroke="#000" stroke-width="2"/>
<path d="M 1026 191 C 1025.92 194.5 1024.89 226 1025 233 C 1025.11 240 1028 303.82 1028 318 C 1028 332.18 1026.95 391.46 1025 406 C 1023.05 420.54 996.38 562.69 993 579 C 989.62 595.31 971.41 668.55 969 676 C 966.59 683.45 952.19 711.39 948 718 C 943.81 724.61 893.07 795.99 889 802 C 884.93 808.01 870.14 833.03 866 839 C 861.86 844.97 822.32 898.2 819 903 C 815.68 907.8 801.56 932.2 801 933 C 800.44 933.8 796.42 935.75 796 936" fill="none" stroke="#000" stroke-width="2"/>
<path d="M 1397 458 L 1397 456" fill="none" stroke="#000" stroke-width="2"/>
<path d="M 1397 458 C 1395.58 459.25 1382.13 471.49 1380 473 C 1377.87 474.51 1367.98 478.3 1366 480 C 1364.02 481.7 1262.01 574.65 1256 580 C 1249.99 585.35 1224.95 605.58 1219 611 C 1213.05 616.42 1126.97 697.3 1121 703 C 1115.03 708.7 1091.58 731.92 1086 738 C 1080.42 744.08 1050.43 779.9 1043 788 C 1035.57 796.1 866.09 977.75 863 981 C 859.91 984.25 844.67 997.5 843 999" fill="none" stroke="#000" stroke-width="2"/>
<path d="M 1397 458 C 1397 458.67 1397.7 464.87 1397 466 C 1396.3 467.13 1372.2 498.97 1368 505 C 1363.8 511.03 1345.1 540.14 1344 542 C 1342.9 543.86 1340.15 552.17 1339 554 C 1337.85 555.83 1329.29 566.76 1327 569 C 1324.71 571.24 1198.47 692.11 1189 701 C 1179.53 709.89 1140.08 743.72 1131 753 C 1121.92 762.28 1069.79 822.59 1057 836 C 1044.21 849.41 932.36 961.51 927 967 C 921.64 972.49 898.6 998.4 896 1001 C 893.4 1003.6 881.66 1012.47 879 1015 C 876.34 1017.53 853.18 1040.93 852 1043 C 850.82 1045.07 854.68 1056.23 855 1057 C 855.32 1057.77 858.23 1059.67 859 1060 C 859.77 1060.33 894.67 1074.63 902 1077 C 909.33 1079.37 946.3 1088.21 955 1091 C 963.7 1093.79 999.32 1107.27 1008 1111 C 1016.68 1114.73 1128.68 1165.79 1132 1167 C 1135.32 1168.21 1149.59 1164.95 1153 1164 C 1156.41 1163.05 1306.07 1118.54 1308 1118 C 1309.93 1117.46 1318.05 1117.47 1320 1117 C 1321.95 1116.53 1334.27 1112.25 1337 1111 C 1339.73 1109.75 1366.29 1095.73 1368 1095 C 1369.71 1094.27 1378.08 1093.17 1379 1093" fill="none" stroke="#000" stroke-width="2"/>
<path d="M 680 887 C 679 883.67 669.83 852.13 668 847 C 666.17 841.87 655.7 818.37 655 817 C 654.3 815.63 650.37 810.69 649 810 C 647.63 809.31 636.17 806.88 635 807 C 633.83 807.12 630.58 810.98 630 812 C 629.42 813.02 627.17 819.43 627 821 C 626.83 822.57 626 845.33 626 848 C 626 850.67 626.5 861.38 627 864 C 627.5 866.62 637.08 907.08 638 911" fill="none" stroke="#000" stroke-width="2"/>
<path d="M 680 887 C 681.42 887 694.19 886.65 697 887 C 699.81 887.35 718.08 891.58 720 892" fill="none" stroke="#000" stroke-width="2"/>
<path d="M 680 887 C 678.67 887.58 666.47 892.46 664 894 C 661.53 895.54 643.71 909.53 643 910 C 642.29 910.47 638.42 910.92 638 911" fill="none" stroke="#000" stroke-width="2"/>
<path d="M 720 892 C 720.58 888.33 726.05 852.43 727 848 C 727.95 843.57 734.47 823.33 735 822 C 735.53 820.67 738.68 815.56 740 815 C 741.32 814.44 752.33 812.92 754 814 C 755.67 815.08 759.47 825.52 760 828 C 760.53 830.48 765.49 864.52 766 870 C 766.51 875.48 766.94 902.26 767 903 C 767.06 903.74 768.83 906.67 769 907" fill="none" stroke="#000" stroke-width="2"/>
<path d="M 720 892 C 722.5 892.83 746.2 900.46 750 902 C 753.8 903.54 768.7 910.56 772 913 C 775.3 915.44 794 934.08 796 936" fill="none" stroke="#000" stroke-width="2"/>
<path d="M 638 911 C 637.92 911.42 637.52 915.32 637 916 C 636.48 916.68 623.64 929.87 622 932 C 620.36 934.13 615.02 943.51 614 946 C 612.98 948.49 600.25 984.89 599 988 C 597.75 991.11 591.11 1002.84 590 1006 C 588.89 1009.16 574.07 1056.77 573 1062 C 571.93 1067.23 571.48 1089.82 572 1094 C 572.52 1098.18 578.87 1115.8 580 1118 C 581.13 1120.2 588.99 1128.11 590 1129 C 591.01 1129.89 595.69 1132.71 597 1133 C 598.31 1133.29 639.18 1140.56 644 1141 C 648.82 1141.44 670.58 1140.08 673 1140" fill="none" stroke="#000" stroke-width="2"/>
<path d="M 796 936 L 797 940" fill="none" stroke="#000" stroke-width="2"/>
<path d="M 1379 1093 L 1381 1089" fill="none" stroke="#000" stroke-width="2"/>
<path d="M 1379 1093 C 1378.67 1093.92 1376.19 1102.45 1375 1104 C 1373.81 1105.55 1358.8 1120.58 1356 1123 C 1353.2 1125.42 1341.3 1134.33 1338 1136 C 1334.7 1137.67 1289.67 1157.29 1285 1159 C 1280.33 1160.71 1258.83 1165.06 1256 1166 C 1253.17 1166.94 1242.8 1172.98 1240 1174 C 1237.2 1175.02 1178.38 1194.31 1174 1196 C 1169.62 1197.69 1150.56 1208.42 1149 1209 C 1147.44 1209.58 1139.46 1208.92 1139 1209 C 1138.54 1209.08 1137.46 1211.08 1137 1211 C 1136.54 1210.92 1094.4 1202.25 1086 1200 C 1077.6 1197.75 1031.55 1184.15 1021 1180 C 1010.45 1175.85 948.85 1147.95 936 1141 C 923.15 1134.05 863.93 1095.11 862 1094 C 860.07 1092.89 851.02 1090.07 849 1091 C 846.98 1091.93 836.49 1104.41 836 1106 C 835.51 1107.59 841.03 1113.18 842 1114 C 842.97 1114.82 848.09 1116.12 849 1117 C 849.91 1117.88 994.8 1261 1000 1266 C 1005.2 1271 1028.54 1288.33 1033 1294 C 1037.46 1299.67 1081.92 1367.58 1089 1379 C 1096.08 1390.42 1123.32 1438.35 1129 1449 C 1134.68 1459.65 1155.29 1503.36 1161 1514 C 1166.71 1524.64 1205.67 1582.22 1209 1598 C 1212.33 1613.78 1213.94 1758.31 1214 1765 C 1214.06 1771.69 1211.16 1803.74 1211 1805 C 1210.84 1806.26 1208.25 1811.42 1208 1812" fill="none" stroke="#000" stroke-width="2"/>
<path d="M 849 1182 L 819 1137" fill="none" stroke="#000" stroke-width="2"/>
<path d="M 849 1182 C 849.58 1182.33 855.15 1184.96 856 1186 C 856.85 1187.04 863.82 1200.54 866 1203 C 868.18 1205.46 916.24 1256.11 927 1266 C 937.76 1275.89 1010.82 1335.95 1014 1339 C 1017.18 1342.05 1024.51 1358.37 1027 1362 C 1029.49 1365.63 1077.11 1430.42 1082 1438 C 1086.89 1445.58 1102.63 1478.33 1107 1486 C 1111.37 1493.67 1130.59 1523.35 1135 1531 C 1139.41 1538.65 1156.09 1571.56 1160 1578 C 1163.91 1584.44 1184.58 1612.81 1186 1615 C 1187.42 1617.19 1192.51 1627.23 1193 1629 C 1193.49 1630.77 1192.73 1638.19 1193 1640 C 1193.27 1641.81 1197.7 1659.09 1198 1663 C 1198.3 1666.91 1197.73 1700.29 1198 1705 C 1198.27 1709.71 1201.77 1728.29 1202 1733 C 1202.23 1737.71 1201.85 1783.14 1202 1787 C 1202.15 1790.86 1204.86 1809.42 1205 1810 C 1205.14 1810.58 1207.75 1811.83 1208 1812" fill="none" stroke="#000" stroke-width="2"/>
<path d="M 849 1182 C 849.17 1182.58 850.36 1187.97 851 1189 C 851.64 1190.03 886.46 1242.21 890 1248 C 893.54 1253.79 906.47 1277.71 909 1284 C 911.53 1290.29 918.7 1318.26 921 1325 C 923.3 1331.74 935.28 1360.31 937 1366 C 938.72 1371.69 943.13 1395.12 944 1401 C 944.87 1406.88 949.66 1447.84 950 1454 C 950.34 1460.16 949.77 1484.88 949 1491 C 948.23 1497.12 942.03 1526.59 940 1533 C 937.97 1539.41 926.94 1564.28 924 1570 C 921.06 1575.72 905.4 1600.95 904 1603 C 902.6 1605.05 895.93 1612.45 894 1614 C 892.07 1615.55 867.11 1633.2 864 1635 C 860.89 1636.8 847.44 1641.97 844 1643 C 840.56 1644.03 800.91 1654.72 794 1656 C 787.09 1657.28 756.16 1659.75 752 1660 C 747.84 1660.25 730.88 1660.32 727 1660 C 723.12 1659.68 705.92 1656.33 704 1656" fill="none" stroke="#000" stroke-width="2"/>
<path d="M 1208 1812 L 1205 1866" fill="none" stroke="#000" stroke-width="2"/>
<path d="M 75 147 L 75 149" fill="none" stroke="#000" stroke-width="2"/>
<path d="M 821 972 C 822.33 974.5 836.57 1001.39 837 1002 C 837.43 1002.61 840.67 1000.17 841 1000" fill="none" stroke="#000" stroke-width="2"/>
<path d="M 640 1147 C 638.25 1149.5 622.14 1171.77 619 1177 C 615.86 1182.23 595.62 1219.37 592 1227 C 588.38 1234.63 575.86 1266.05 573 1274 C 570.14 1281.95 553.47 1332.29 551 1341 C 548.53 1349.71 539.93 1389.21 539 1394 C 538.07 1398.79 535.27 1418.13 535 1423 C 534.73 1427.87 533.95 1479.15 534 1483 C 534.05 1486.85 535.37 1502.2 536 1506 C 536.63 1509.8 540.62 1526.94 542 1531 C 543.38 1535.06 552.89 1557.94 555 1562 C 557.11 1566.06 567.11 1581.45 570 1585 C 572.89 1588.55 586.52 1601.94 590 1605 C 593.48 1608.06 608.1 1619.5 612 1622 C 615.9 1624.5 635.79 1635.05 640 1637 C 644.21 1638.95 661.55 1645.69 666 1647 C 670.45 1648.31 698.08 1654.33 701 1655" fill="none" stroke="#000" stroke-width="2"/>
<path d="M 1415 1739 L 1418 1745" fill="none" stroke="#000" stroke-width="2"/>
</svg>