<svg xmlns="http://www.w3.org/2000/svg" width="1500" height="2000" viewBox="0 0 1500 2000">
<path d="M 692 436 C 693.3 434.81 702.59 429.44 704 425 C 705.41 420.56 705.65 401.5 705 395 C 704.35 388.5 699.84 369.66 698 365 C 696.16 360.34 689.08 353.41 688 352" fill="none" stroke="#000" stroke-width="2"/>
<path d="M 692 436 L 673 443" fill="none" stroke="#000" stroke-width="2"/>
<path d="M 692 436 L 693 444" fill="none" stroke="#000" stroke-width="2"/>
<path d="M 710 517 L 710 514" fill="none" stroke="#000" stroke-width="2"/>
<path d="M 710 517 L 709 518" fill="none" stroke="#000" stroke-width="2"/>
<path d="M 710 517 L 710 518" fill="none" stroke="#000" stroke-width="2"/>
<path d="M 710 517 L 711 518" fill="none" stroke="#000" stroke-width="2"/>
<path d="M 709 518 C 706.29 517.13 687.79 510.32 684 510 C 680.21 509.68 675.3 513.48 674 515 C 672.7 516.52 672.22 523.02 672 524" fill="none" stroke="#000" stroke-width="2"/>
<path d="M 709 518 L 710 518" fill="none" stroke="#000" stroke-width="2"/>
<path d="M 710 518 L 711 518" fill="none" stroke="#000" stroke-width="2"/>
<path d="M 711 518 C 714.03 518.11 732.07 520.95 739 519 C 745.93 517.05 769.8 501.95 775 500 C 780.2 498.05 785.05 500.13 787 501 C 788.95 501.87 792.02 505.07 793 508 C 793.98 510.93 796.54 523.34 796 528 C 795.46 532.66 791.03 546.12 788 551 C 784.97 555.88 772.44 569.75 768 573 C 763.56 576.25 749.27 580.13 747 581" fill="none" stroke="#000" stroke-width="2"/>
<path d="M 338 1211 C 336.81 1209.05 331.23 1204.38 327 1193 C 322.77 1181.62 302.25 1118.35 299 1106 C 295.75 1093.65 299.17 1089.72 297 1079 C 294.83 1068.28 282.68 1031.81 279 1007 C 275.32 982.19 264.3 881.52 263 850 C 261.7 818.48 265.05 733.66 267 716 C 268.95 698.34 275.15 694.8 281 687 C 286.85 679.2 311.36 651.8 321 644 C 330.64 636.2 359.49 618.36 370 615 C 380.51 611.64 402.94 609.86 418 613 C 433.06 616.14 494.38 640.97 509 644 C 523.62 647.03 544.33 643.92 553 641 C 561.67 638.08 583.91 621.88 589 617 C 594.09 612.12 598.38 610.41 600 596 C 601.62 581.59 604.54 505.12 604 484 C 603.46 462.88 595.87 414.22 595 401 C 594.13 387.78 594.7 371.43 596 362 C 597.3 352.57 604.18 321.48 607 314 C 609.82 306.52 615.39 298.74 622 293 C 628.61 287.26 658.03 265.77 668 261 C 677.97 256.23 703.71 250.19 714 249 C 724.29 247.81 753.47 249.03 763 250 C 772.53 250.97 795.39 255.83 802 258 C 808.61 260.17 818.15 264.58 824 270 C 829.85 275.42 850.48 295.98 856 308 C 861.52 320.02 872.83 366.59 875 381 C 877.17 395.41 877.84 422.04 876 441 C 874.16 459.96 859.19 539.32 858 556 C 856.81 572.68 863.48 589.91 865 595 C 866.52 600.09 868.86 601.16 872 603 C 875.14 604.84 880.67 611.67 894 612 C 907.33 612.33 984.06 606.65 995 606" fill="none" stroke="#000" stroke-width="2"/>
<path d="M 338 1211 L 339 1211" fill="none" stroke="#000" stroke-width="2"/>
<path d="M 338 1211 L 339 1212" fill="none" stroke="#000" stroke-width="2"/>
<path d="M 339 1211 C 338.78 1206.02 336.57 1176.38 337 1165 C 337.43 1153.62 339.1 1122.58 343 1106 C 346.9 1089.42 367.91 1031.28 373 1012 C 378.09 992.72 386.43 935.58 390 928 C 393.57 920.42 402.75 936.69 406 942 C 409.25 947.31 417.62 967.25 420 977 C 422.38 986.75 427.13 1026.04 428 1032" fill="none" stroke="#000" stroke-width="2"/>
<path d="M 339 1211 L 339 1212" fill="none" stroke="#000" stroke-width="2"/>
<path d="M 339 1212 L 342 1237" fill="none" stroke="#000" stroke-width="2"/>
<path d="M 429 1033 L 428 1032" fill="none" stroke="#000" stroke-width="2"/>
<path d="M 429 1033 L 429 1032" fill="none" stroke="#000" stroke-width="2"/>
<path d="M 429 1033 L 429 1039" fill="none" stroke="#000" stroke-width="2"/>
<path d="M 428 1032 L 429 1032" fill="none" stroke="#000" stroke-width="2"/>
<path d="M 429 1032 C 432.68 1022.03 454.98 956.58 463 940 C 471.02 923.42 497.58 886.26 503 879 C 508.42 871.74 511.59 871.27 513 873 C 514.41 874.73 520.88 858.92 516 895 C 511.12 931.08 480.46 1140.78 468 1206 C 455.54 1271.22 411.4 1457.57 401 1497 C 390.6 1536.43 378.28 1547.03 372 1570 C 365.72 1592.97 344.08 1694.7 343 1709 C 341.92 1723.3 353.23 1707.96 362 1702 C 370.77 1696.04 412.3 1664.83 424 1654 C 435.7 1643.17 465.02 1607.63 470 1602" fill="none" stroke="#000" stroke-width="2"/>
<path d="M 904 1574 L 905 1573" fill="none" stroke="#000" stroke-width="2"/>
<path d="M 904 1574 L 905 1574" fill="none" stroke="#000" stroke-width="2"/>
<path d="M 904 1574 L 902 1575" fill="none" stroke="#000" stroke-width="2"/>
<path d="M 905 1573 L 903 1571" fill="none" stroke="#000" stroke-width="2"/>
<path d="M 905 1573 L 905 1574" fill="none" stroke="#000" stroke-width="2"/>
<path d="M 905 1573 L 906 1574" fill="none" stroke="#000" stroke-width="2"/>
<path d="M 905 1574 L 906 1574" fill="none" stroke="#000" stroke-width="2"/>
<path d="M 906 1574 C 911.09 1581.47 941.62 1629.24 953 1643 C 964.38 1656.76 1004.72 1694.72 1011 1701" fill="none" stroke="#000" stroke-width="2"/>
<path d="M 774 1588 L 773 1587" fill="none" stroke="#000" stroke-width="2"/>
<path d="M 774 1588 L 773 1588" fill="none" stroke="#000" stroke-width="2"/>
<path d="M 774 1588 C 774.98 1588.65 779.42 1588.91 783 1594 C 786.58 1599.09 799.63 1620.59 807 1635 C 814.37 1649.41 846.23 1717.03 851 1727" fill="none" stroke="#000" stroke-width="2"/>
<path d="M 773 1587 L 773 1586" fill="none" stroke="#000" stroke-width="2"/>
<path d="M 773 1587 L 773 1588" fill="none" stroke="#000" stroke-width="2"/>
<path d="M 773 1588 C 771.92 1595.04 766.9 1640.76 763 1653 C 759.1 1665.24 741.88 1693.31 737 1701 C 732.12 1708.69 720.06 1721.51 718 1724" fill="none" stroke="#000" stroke-width="2"/>
<path d="M 738 585 L 745 583" fill="none" stroke="#000" stroke-width="2"/>
<path d="M 924 859 C 928.12 865.5 956.58 907.3 962 919 C 967.42 930.7 969.77 964.83 974 967 C 978.23 969.17 995.26 947.23 1001 939 C 1006.74 930.77 1021.8 892.08 1027 891 C 1032.2 889.92 1042.93 908.74 1049 929 C 1055.07 949.26 1078.34 1051.78 1083 1078 C 1087.66 1104.22 1091.35 1155.72 1092 1171 C 1092.65 1186.28 1088.89 1213.15 1089 1219 C 1089.11 1224.85 1092.57 1224.35 1093 1225" fill="none" stroke="#000" stroke-width="2"/>
<path d="M 470 1722 L 470 1721" fill="none" stroke="#000" stroke-width="2"/>
<path d="M 470 1722 L 471 1721" fill="none" stroke="#000" stroke-width="2"/>
<path d="M 470 1722 L 469 1724" fill="none" stroke="#000" stroke-width="2"/>
<path d="M 470 1721 L 470 1720" fill="none" stroke="#000" stroke-width="2"/>
<path d="M 470 1721 L 471 1721" fill="none" stroke="#000" stroke-width="2"/>
<path d="M 471 1721 L 470 1720" fill="none" stroke="#000" stroke-width="2"/>
<path d="M 471 1721 C 473.82 1718.62 489.42 1707.78 497 1699 C 504.58 1690.22 533.52 1651.27 541 1640 C 548.48 1628.73 563.29 1599.88 566 1595" fill="none" stroke="#000" stroke-width="2"/>
<path d="M 470 1720 L 471 1602" fill="none" stroke="#000" stroke-width="2"/>
<path d="M 1012 1702 L 1011 1701" fill="none" stroke="#000" stroke-width="2"/>
<path d="M 1012 1702 L 1012 1701" fill="none" stroke="#000" stroke-width="2"/>
<path d="M 1012 1702 L 1015 1712" fill="none" stroke="#000" stroke-width="2"/>
<path d="M 1011 1701 L 1012 1700" fill="none" stroke="#000" stroke-width="2"/>
<path d="M 1011 1701 L 1012 1701" fill="none" stroke="#000" stroke-width="2"/>
<path d="M 1012 1701 L 1012 1700" fill="none" stroke="#000" stroke-width="2"/>
<path d="M 1012 1700 C 1011.67 1696.1 1013.55 1680.36 1009 1664 C 1004.45 1647.64 977.8 1569.91 970 1549 C 962.2 1528.09 946.1 1506.75 937 1471 C 927.9 1435.25 894.12 1275.22 886 1219 C 877.88 1162.78 862.65 995.33 862 952 C 861.35 908.67 878.05 833.41 880 819" fill="none" stroke="#000" stroke-width="2"/>
<path d="M 718 1724 L 667 1610" fill="none" stroke="#000" stroke-width="2"/>
<path d="M 718 1724 L 717 1726" fill="none" stroke="#000" stroke-width="2"/>
<path d="M 921 856 C 917.64 852.42 894.44 827.01 890 823 C 885.56 818.99 881.08 819.43 880 819" fill="none" stroke="#000" stroke-width="2"/>
<path d="M 666 1608 L 666 1609" fill="none" stroke="#000" stroke-width="2"/>
<path d="M 666 1609 L 665 1610" fill="none" stroke="#000" stroke-width="2"/>
<path d="M 666 1609 L 666 1610" fill="none" stroke="#000" stroke-width="2"/>
<path d="M 666 1609 L 667 1610" fill="none" stroke="#000" stroke-width="2"/>
<path d="M 665 1610 L 666 1610" fill="none" stroke="#000" stroke-width="2"/>
<path d="M 665 1610 C 663.7 1615.2 655.82 1649.66 653 1658 C 650.18 1666.34 646.15 1678.22 639 1687 C 631.85 1695.78 593.39 1734.78 587 1739 C 580.61 1743.22 581.84 1732.83 580 1726 C 578.16 1719.17 571.41 1690.19 570 1676 C 568.59 1661.81 567.33 1603.78 567 1595" fill="none" stroke="#000" stroke-width="2"/>
<path d="M 666 1610 L 667 1610" fill="none" stroke="#000" stroke-width="2"/>
<path d="M 567 1595 L 567 1594" fill="none" stroke="#000" stroke-width="2"/>
<path d="M 567 1595 L 566 1595" fill="none" stroke="#000" stroke-width="2"/>
<path d="M 567 1594 L 568 1590" fill="none" stroke="#000" stroke-width="2"/>
<path d="M 567 1594 L 566 1595" fill="none" stroke="#000" stroke-width="2"/>
<path d="M 1093 1225 C 1095.17 1219.69 1108.34 1190.73 1113 1176 C 1117.66 1161.27 1131.88 1112.29 1136 1089 C 1140.12 1065.71 1148.18 997.18 1151 961 C 1153.82 924.82 1163.3 786.63 1162 755 C 1160.7 723.37 1144.63 682.43 1139 669 C 1133.37 655.57 1118.56 637.39 1110 631 C 1101.44 624.61 1071.92 612.92 1060 610 C 1048.08 607.08 1006.5 604.65 1000 604" fill="none" stroke="#000" stroke-width="2"/>
<path d="M 1093 1225 L 1092 1229" fill="none" stroke="#000" stroke-width="2"/>
<path d="M 687 351 L 688 350" fill="none" stroke="#000" stroke-width="2"/>
<path d="M 687 351 L 686 352" fill="none" stroke="#000" stroke-width="2"/>
<path d="M 687 351 L 687 352" fill="none" stroke="#000" stroke-width="2"/>
<path d="M 687 351 L 688 352" fill="none" stroke="#000" stroke-width="2"/>
<path d="M 686 352 C 684.05 352.22 671.47 352.59 668 354 C 664.53 355.41 657.58 357.42 654 365 C 650.42 372.58 635.98 415.23 635 424 C 634.02 432.77 642.18 443.18 645 446 C 647.82 448.82 658.08 450.32 661 450 C 663.92 449.68 670.81 443.76 672 443" fill="none" stroke="#000" stroke-width="2"/>
<path d="M 686 352 L 687 352" fill="none" stroke="#000" stroke-width="2"/>
<path d="M 687 352 L 688 352" fill="none" stroke="#000" stroke-width="2"/>
<path d="M 901 1574 L 901 1572" fill="none" stroke="#000" stroke-width="2"/>
<path d="M 901 1574 L 901 1575" fill="none" stroke="#000" stroke-width="2"/>
<path d="M 901 1574 L 902 1575" fill="none" stroke="#000" stroke-width="2"/>
<path d="M 901 1575 L 902 1575" fill="none" stroke="#000" stroke-width="2"/>
<path d="M 901 1575 L 901 1576" fill="none" stroke="#000" stroke-width="2"/>
<path d="M 902 1575 L 901 1576" fill="none" stroke="#000" stroke-width="2"/>
<path d="M 901 1576 C 900.57 1581.09 900.03 1610.11 897 1623 C 893.97 1635.89 877.88 1683.73 873 1695 C 868.12 1706.27 854.27 1723.53 852 1727" fill="none" stroke="#000" stroke-width="2"/>
<path d="M 672 524 L 671 525" fill="none" stroke="#000" stroke-width="2"/>
<path d="M 672 524 L 672 525" fill="none" stroke="#000" stroke-width="2"/>
<path d="M 671 525 L 672 525" fill="none" stroke="#000" stroke-width="2"/>
<path d="M 671 525 C 670.89 525.87 668.27 529.21 670 533 C 671.73 536.79 683.21 555.23 687 560 C 690.79 564.77 700.02 574.08 705 577 C 709.98 579.92 729.97 585.92 733 587" fill="none" stroke="#000" stroke-width="2"/>
<path d="M 672 525 L 676 528" fill="none" stroke="#000" stroke-width="2"/>
<path d="M 901 1572 L 901 1571" fill="none" stroke="#000" stroke-width="2"/>
<path d="M 901 1572 L 902 1571" fill="none" stroke="#000" stroke-width="2"/>
<path d="M 901 1571 L 902 1570" fill="none" stroke="#000" stroke-width="2"/>
<path d="M 901 1571 L 902 1571" fill="none" stroke="#000" stroke-width="2"/>
<path d="M 902 1571 L 902 1570" fill="none" stroke="#000" stroke-width="2"/>
<path d="M 902 1571 L 903 1571" fill="none" stroke="#000" stroke-width="2"/>
<path d="M 902 1570 L 902 1569" fill="none" stroke="#000" stroke-width="2"/>
<path d="M 902 1570 L 903 1571" fill="none" stroke="#000" stroke-width="2"/>
<path d="M 851 1728 L 851 1727" fill="none" stroke="#000" stroke-width="2"/>
<path d="M 851 1728 L 852 1727" fill="none" stroke="#000" stroke-width="2"/>
<path d="M 851 1728 L 852 1730" fill="none" stroke="#000" stroke-width="2"/>
<path d="M 851 1727 L 852 1727" fill="none" stroke="#000" stroke-width="2"/>
<path d="M 471 1601 L 474 1595" fill="none" stroke="#000" stroke-width="2"/>
<path d="M 471 1601 L 470 1602" fill="none" stroke="#000" stroke-width="2"/>
<path d="M 471 1601 L 471 1602" fill="none" stroke="#000" stroke-width="2"/>
<path d="M 470 1602 L 471 1602" fill="none" stroke="#000" stroke-width="2"/>
<path d="M 679 449 L 673 444" fill="none" stroke="#000" stroke-width="2"/>
<path d="M 673 443 L 672 443" fill="none" stroke="#000" stroke-width="2"/>
<path d="M 673 443 L 673 444" fill="none" stroke="#000" stroke-width="2"/>
<path d="M 672 443 L 673 444" fill="none" stroke="#000" stroke-width="2"/>
<path d="M 689 448 L 691 447" fill="none" stroke="#000" stroke-width="2"/>
<path d="M 880 819 L 879 817" fill="none" stroke="#000" stroke-width="2"/>
<path d="M 775 367 C 771.75 368.3 764.41 375.43 763 379 C 761.59 382.57 761.35 395.12 762 400 C 762.65 404.88 766.29 419.56 769 424 C 771.71 428.44 782.88 438.94 787 441 C 791.12 443.06 802.67 445.6 807 443 C 811.33 440.4 825.7 423.72 827 417 C 828.3 410.28 822.68 386.42 819 381 C 815.32 375.58 797.77 368.52 793 367 C 788.23 365.48 778.25 365.7 775 367 Z" fill="none" stroke="#000" stroke-width="2"/>
</svg>