<svg xmlns="http://www.w3.org/2000/svg" viewBox="0 0 1261.648 1201.073" width="1261.648" height="1201.073">
  <title>Penrose P1 pentagon–star tiling in a pentagonal frame, 166 pentagons</title>
  <g fill="none" stroke="#000" stroke-width="2" stroke-linecap="round" stroke-linejoin="round">
    <g id="outline">
      <polygon points="630.824,12 12,461.602 248.37,1189.073 1013.278,1189.073 1249.648,461.602"/>
    </g>
    <g id="tiling">
    <line x1="641.791" y1="19.968" x2="630.824" y2="27.936"/>
    <line x1="630.824" y1="27.936" x2="608.89" y2="27.936"/>
    <line x1="560.66" y1="62.977" x2="553.882" y2="83.838"/>
    <line x1="711.955" y1="70.945" x2="707.766" y2="83.838"/>
    <line x1="553.882" y1="83.838" x2="506.329" y2="118.387"/>
    <line x1="707.766" y1="83.838" x2="660.213" y2="118.387"/>
    <line x1="648.988" y1="83.838" x2="707.766" y2="83.838"/>
    <line x1="553.882" y1="83.838" x2="549.693" y2="70.945"/>
    <line x1="648.988" y1="83.838" x2="630.824" y2="27.936"/>
    <line x1="766.286" y1="110.419" x2="755.319" y2="118.387"/>
    <line x1="506.329" y1="118.387" x2="524.493" y2="174.289"/>
    <line x1="601.435" y1="118.387" x2="583.271" y2="174.289"/>
    <line x1="601.435" y1="118.387" x2="553.882" y2="83.838"/>
    <line x1="660.213" y1="118.387" x2="601.435" y2="118.387"/>
    <line x1="755.319" y1="118.387" x2="707.766" y2="83.838"/>
    <line x1="755.319" y1="118.387" x2="773.482" y2="174.289"/>
    <line x1="506.329" y1="118.387" x2="495.362" y2="110.419"/>
    <line x1="601.435" y1="118.387" x2="648.988" y2="83.838"/>
    <line x1="425.198" y1="161.396" x2="429.387" y2="174.289"/>
    <line x1="843.228" y1="166.321" x2="832.261" y2="174.289"/>
    <line x1="429.387" y1="174.289" x2="411.223" y2="230.19"/>
    <line x1="583.271" y1="174.289" x2="630.824" y2="208.838"/>
    <line x1="429.387" y1="174.289" x2="418.42" y2="166.321"/>
    <line x1="488.165" y1="174.289" x2="429.387" y2="174.289"/>
    <line x1="524.493" y1="174.289" x2="506.329" y2="230.19"/>
    <line x1="678.377" y1="174.289" x2="660.213" y2="118.387"/>
    <line x1="678.377" y1="174.289" x2="660.213" y2="230.19"/>
    <line x1="737.155" y1="174.289" x2="755.319" y2="118.387"/>
    <line x1="773.482" y1="174.289" x2="755.319" y2="230.19"/>
    <line x1="488.165" y1="174.289" x2="506.329" y2="118.387"/>
    <line x1="583.271" y1="174.289" x2="524.493" y2="174.289"/>
    <line x1="737.155" y1="174.289" x2="678.377" y2="174.289"/>
    <line x1="832.261" y1="174.289" x2="773.482" y2="174.289"/>
    <line x1="832.261" y1="174.289" x2="836.45" y2="161.396"/>
    <line x1="630.824" y1="208.838" x2="678.377" y2="174.289"/>
    <line x1="348.256" y1="217.298" x2="352.445" y2="230.19"/>
    <line x1="352.445" y1="230.19" x2="411.223" y2="230.19"/>
    <line x1="411.223" y1="230.19" x2="458.776" y2="264.739"/>
    <line x1="506.329" y1="230.19" x2="488.165" y2="174.289"/>
    <line x1="352.445" y1="230.19" x2="304.892" y2="264.739"/>
    <line x1="506.329" y1="230.19" x2="553.882" y2="264.739"/>
    <line x1="601.435" y1="230.19" x2="583.271" y2="174.289"/>
    <line x1="660.213" y1="230.19" x2="707.766" y2="264.739"/>
    <line x1="755.319" y1="230.19" x2="802.872" y2="264.739"/>
    <line x1="755.319" y1="230.19" x2="737.155" y2="174.289"/>
    <line x1="850.425" y1="230.19" x2="832.261" y2="174.289"/>
    <line x1="850.425" y1="230.19" x2="909.203" y2="230.19"/>
    <line x1="909.203" y1="230.19" x2="861.65" y2="264.739"/>
    <line x1="909.203" y1="230.19" x2="913.392" y2="217.298"/>
    <line x1="967.723" y1="256.771" x2="956.756" y2="264.739"/>
    <line x1="458.776" y1="264.739" x2="506.329" y2="230.19"/>
    <line x1="304.892" y1="264.739" x2="293.925" y2="256.771"/>
    <line x1="861.65" y1="264.739" x2="802.872" y2="264.739"/>
    <line x1="304.892" y1="264.739" x2="323.056" y2="320.641"/>
    <line x1="399.998" y1="264.739" x2="381.834" y2="320.641"/>
    <line x1="399.998" y1="264.739" x2="352.445" y2="230.19"/>
    <line x1="458.776" y1="264.739" x2="476.94" y2="320.641"/>
    <line x1="458.776" y1="264.739" x2="399.998" y2="264.739"/>
    <line x1="553.882" y1="264.739" x2="601.435" y2="230.19"/>
    <line x1="612.66" y1="264.739" x2="553.882" y2="264.739"/>
    <line x1="648.988" y1="264.739" x2="630.824" y2="320.641"/>
    <line x1="707.766" y1="264.739" x2="755.319" y2="230.19"/>
    <line x1="707.766" y1="264.739" x2="648.988" y2="264.739"/>
    <line x1="802.872" y1="264.739" x2="850.425" y2="230.19"/>
    <line x1="956.756" y1="264.739" x2="909.203" y2="230.19"/>
    <line x1="956.756" y1="264.739" x2="974.919" y2="320.641"/>
    <line x1="707.766" y1="264.739" x2="725.93" y2="320.641"/>
    <line x1="223.761" y1="307.749" x2="227.95" y2="320.641"/>
    <line x1="1044.665" y1="312.673" x2="1033.698" y2="320.641"/>
    <line x1="286.728" y1="320.641" x2="304.892" y2="264.739"/>
    <line x1="784.708" y1="320.641" x2="832.261" y2="355.19"/>
    <line x1="879.814" y1="320.641" x2="861.65" y2="264.739"/>
    <line x1="227.95" y1="320.641" x2="209.786" y2="376.543"/>
    <line x1="227.95" y1="320.641" x2="216.983" y2="312.673"/>
    <line x1="286.728" y1="320.641" x2="227.95" y2="320.641"/>
    <line x1="323.056" y1="320.641" x2="304.892" y2="376.543"/>
    <line x1="381.834" y1="320.641" x2="429.387" y2="355.19"/>
    <line x1="381.834" y1="320.641" x2="323.056" y2="320.641"/>
    <line x1="476.94" y1="320.641" x2="535.718" y2="320.641"/>
    <line x1="476.94" y1="320.641" x2="458.776" y2="376.543"/>
    <line x1="535.718" y1="320.641" x2="583.271" y2="355.19"/>
    <line x1="535.718" y1="320.641" x2="553.882" y2="264.739"/>
    <line x1="630.824" y1="320.641" x2="612.66" y2="264.739"/>
    <line x1="630.824" y1="320.641" x2="678.377" y2="355.19"/>
    <line x1="725.93" y1="320.641" x2="707.766" y2="376.543"/>
    <line x1="938.592" y1="320.641" x2="956.756" y2="264.739"/>
    <line x1="974.919" y1="320.641" x2="956.756" y2="376.543"/>
    <line x1="1033.698" y1="320.641" x2="1037.887" y2="307.749"/>
    <line x1="1033.698" y1="320.641" x2="974.919" y2="320.641"/>
    <line x1="725.93" y1="320.641" x2="784.708" y2="320.641"/>
    <line x1="784.708" y1="320.641" x2="802.872" y2="264.739"/>
    <line x1="879.814" y1="320.641" x2="861.65" y2="376.543"/>
    <line x1="938.592" y1="320.641" x2="879.814" y2="320.641"/>
    <line x1="583.271" y1="355.19" x2="601.435" y2="411.092"/>
    <line x1="832.261" y1="355.19" x2="879.814" y2="320.641"/>
    <line x1="429.387" y1="355.19" x2="476.94" y2="320.641"/>
    <line x1="583.271" y1="355.19" x2="630.824" y2="320.641"/>
    <line x1="678.377" y1="355.19" x2="725.93" y2="320.641"/>
    <line x1="146.819" y1="363.65" x2="151.008" y2="376.543"/>
    <line x1="151.008" y1="376.543" x2="103.455" y2="411.092"/>
    <line x1="458.776" y1="376.543" x2="411.223" y2="411.092"/>
    <line x1="151.008" y1="376.543" x2="209.786" y2="376.543"/>
    <line x1="209.786" y1="376.543" x2="257.339" y2="411.092"/>
    <line x1="304.892" y1="376.543" x2="352.445" y2="411.092"/>
    <line x1="304.892" y1="376.543" x2="286.728" y2="320.641"/>
    <line x1="399.998" y1="376.543" x2="381.834" y2="320.641"/>
    <line x1="458.776" y1="376.543" x2="506.329" y2="411.092"/>
    <line x1="553.882" y1="376.543" x2="535.718" y2="320.641"/>
    <line x1="707.766" y1="376.543" x2="755.319" y2="411.092"/>
    <line x1="707.766" y1="376.543" x2="660.213" y2="411.092"/>
    <line x1="802.872" y1="376.543" x2="784.708" y2="320.641"/>
    <line x1="956.756" y1="376.543" x2="1004.309" y2="411.092"/>
    <line x1="1051.862" y1="376.543" x2="1033.698" y2="320.641"/>
    <line x1="1051.862" y1="376.543" x2="1110.64" y2="376.543"/>
    <line x1="1110.64" y1="376.543" x2="1063.087" y2="411.092"/>
    <line x1="1110.64" y1="376.543" x2="1114.829" y2="363.65"/>
    <line x1="861.65" y1="376.543" x2="909.203" y2="411.092"/>
    <line x1="956.756" y1="376.543" x2="938.592" y2="320.641"/>
    <line x1="92.488" y1="403.124" x2="103.455" y2="411.092"/>
    <line x1="103.455" y1="411.092" x2="121.619" y2="466.994"/>
    <line x1="103.455" y1="411.092" x2="81.521" y2="411.092"/>
    <line x1="198.561" y1="411.092" x2="151.008" y2="376.543"/>
    <line x1="411.223" y1="411.092" x2="429.387" y2="466.994"/>
    <line x1="411.223" y1="411.092" x2="352.445" y2="411.092"/>
    <line x1="601.435" y1="411.092" x2="660.213" y2="411.092"/>
    <line x1="660.213" y1="411.092" x2="678.377" y2="355.19"/>
    <line x1="198.561" y1="411.092" x2="180.397" y2="466.994"/>
    <line x1="257.339" y1="411.092" x2="304.892" y2="376.543"/>
    <line x1="257.339" y1="411.092" x2="275.503" y2="466.994"/>
    <line x1="257.339" y1="411.092" x2="198.561" y2="411.092"/>
    <line x1="352.445" y1="411.092" x2="399.998" y2="376.543"/>
    <line x1="506.329" y1="411.092" x2="524.493" y2="466.994"/>
    <line x1="506.329" y1="411.092" x2="553.882" y2="376.543"/>
    <line x1="601.435" y1="411.092" x2="553.882" y2="376.543"/>
    <line x1="660.213" y1="411.092" x2="678.377" y2="466.994"/>
    <line x1="755.319" y1="411.092" x2="802.872" y2="376.543"/>
    <line x1="755.319" y1="411.092" x2="773.482" y2="466.994"/>
    <line x1="850.425" y1="411.092" x2="802.872" y2="376.543"/>
    <line x1="909.203" y1="411.092" x2="927.367" y2="466.994"/>
    <line x1="909.203" y1="411.092" x2="850.425" y2="411.092"/>
    <line x1="1004.309" y1="411.092" x2="1051.862" y2="376.543"/>
    <line x1="1063.087" y1="411.092" x2="1004.309" y2="411.092"/>
    <line x1="1158.193" y1="411.092" x2="1110.64" y2="376.543"/>
    <line x1="1158.193" y1="411.092" x2="1169.16" y2="403.124"/>
    <line x1="1180.127" y1="411.092" x2="1158.193" y2="411.092"/>
    <line x1="909.203" y1="411.092" x2="956.756" y2="376.543"/>
    <line x1="33.291" y1="446.133" x2="26.513" y2="466.994"/>
    <line x1="26.513" y1="466.994" x2="74.066" y2="501.543"/>
    <line x1="275.503" y1="466.994" x2="257.339" y2="522.895"/>
    <line x1="26.513" y1="466.994" x2="16.189" y2="474.494"/>
    <line x1="334.281" y1="466.994" x2="381.834" y2="501.543"/>
    <line x1="583.271" y1="466.994" x2="630.824" y2="501.543"/>
    <line x1="121.619" y1="466.994" x2="103.455" y2="522.895"/>
    <line x1="180.397" y1="466.994" x2="121.619" y2="466.994"/>
    <line x1="429.387" y1="466.994" x2="488.165" y2="466.994"/>
    <line x1="488.165" y1="466.994" x2="506.329" y2="411.092"/>
    <line x1="927.367" y1="466.994" x2="909.203" y2="522.895"/>
    <line x1="180.397" y1="466.994" x2="227.95" y2="501.543"/>
    <line x1="583.271" y1="466.994" x2="535.718" y2="501.543"/>
    <line x1="832.261" y1="466.994" x2="879.814" y2="501.543"/>
    <line x1="832.261" y1="466.994" x2="784.708" y2="501.543"/>
    <line x1="986.145" y1="466.994" x2="1033.698" y2="501.543"/>
    <line x1="1140.029" y1="466.994" x2="1187.582" y2="501.543"/>
    <line x1="275.503" y1="466.994" x2="334.281" y2="466.994"/>
    <line x1="334.281" y1="466.994" x2="352.445" y2="411.092"/>
    <line x1="524.493" y1="466.994" x2="583.271" y2="466.994"/>
    <line x1="583.271" y1="466.994" x2="601.435" y2="411.092"/>
    <line x1="678.377" y1="466.994" x2="737.155" y2="466.994"/>
    <line x1="737.155" y1="466.994" x2="755.319" y2="411.092"/>
    <line x1="773.482" y1="466.994" x2="832.261" y2="466.994"/>
    <line x1="832.261" y1="466.994" x2="850.425" y2="411.092"/>
    <line x1="927.367" y1="466.994" x2="986.145" y2="466.994"/>
    <line x1="986.145" y1="466.994" x2="1004.309" y2="411.092"/>
    <line x1="1081.251" y1="466.994" x2="1063.087" y2="411.092"/>
    <line x1="1140.029" y1="466.994" x2="1158.193" y2="411.092"/>
    <line x1="1235.135" y1="466.994" x2="1228.357" y2="446.133"/>
    <line x1="1081.251" y1="466.994" x2="1063.087" y2="522.895"/>
    <line x1="1140.029" y1="466.994" x2="1081.251" y2="466.994"/>
    <line x1="1245.459" y1="474.494" x2="1235.135" y2="466.994"/>
    <line x1="74.066" y1="501.543" x2="121.619" y2="466.994"/>
    <line x1="381.834" y1="501.543" x2="429.387" y2="466.994"/>
    <line x1="630.824" y1="501.543" x2="678.377" y2="466.994"/>
    <line x1="381.834" y1="501.543" x2="399.998" y2="557.445"/>
    <line x1="535.718" y1="501.543" x2="553.882" y2="557.445"/>
    <line x1="630.824" y1="501.543" x2="648.988" y2="557.445"/>
    <line x1="784.708" y1="501.543" x2="802.872" y2="557.445"/>
    <line x1="227.95" y1="501.543" x2="275.503" y2="466.994"/>
    <line x1="476.94" y1="501.543" x2="429.387" y2="466.994"/>
    <line x1="725.93" y1="501.543" x2="678.377" y2="466.994"/>
    <line x1="879.814" y1="501.543" x2="927.367" y2="466.994"/>
    <line x1="1033.698" y1="501.543" x2="1081.251" y2="466.994"/>
    <line x1="1187.582" y1="501.543" x2="1235.135" y2="466.994"/>
    <line x1="1187.582" y1="501.543" x2="1205.746" y2="557.445"/>
    <line x1="257.339" y1="522.895" x2="304.892" y2="557.445"/>
    <line x1="103.455" y1="522.895" x2="151.008" y2="557.445"/>
    <line x1="352.445" y1="522.895" x2="334.281" y2="466.994"/>
    <line x1="909.203" y1="522.895" x2="956.756" y2="557.445"/>
    <line x1="198.561" y1="522.895" x2="180.397" y2="466.994"/>
    <line x1="506.329" y1="522.895" x2="458.776" y2="557.445"/>
    <line x1="755.319" y1="522.895" x2="707.766" y2="557.445"/>
    <line x1="909.203" y1="522.895" x2="861.65" y2="557.445"/>
    <line x1="103.455" y1="522.895" x2="55.902" y2="557.445"/>
    <line x1="1004.309" y1="522.895" x2="986.145" y2="466.994"/>
    <line x1="1063.087" y1="522.895" x2="1110.64" y2="557.445"/>
    <line x1="1158.193" y1="522.895" x2="1140.029" y2="466.994"/>
    <line x1="151.008" y1="557.445" x2="132.844" y2="613.346"/>
    <line x1="55.902" y1="557.445" x2="43.141" y2="557.445"/>
    <line x1="209.786" y1="557.445" x2="151.008" y2="557.445"/>
    <line x1="246.114" y1="557.445" x2="227.95" y2="613.346"/>
    <line x1="55.902" y1="557.445" x2="74.066" y2="501.543"/>
    <line x1="304.892" y1="557.445" x2="352.445" y2="522.895"/>
    <line x1="304.892" y1="557.445" x2="323.056" y2="613.346"/>
    <line x1="304.892" y1="557.445" x2="246.114" y2="557.445"/>
    <line x1="151.008" y1="557.445" x2="198.561" y2="522.895"/>
    <line x1="399.998" y1="557.445" x2="352.445" y2="522.895"/>
    <line x1="648.988" y1="557.445" x2="630.824" y2="613.346"/>
    <line x1="458.776" y1="557.445" x2="476.94" y2="613.346"/>
    <line x1="707.766" y1="557.445" x2="725.93" y2="613.346"/>
    <line x1="399.998" y1="557.445" x2="458.776" y2="557.445"/>
    <line x1="458.776" y1="557.445" x2="476.94" y2="501.543"/>
    <line x1="553.882" y1="557.445" x2="612.66" y2="557.445"/>
    <line x1="553.882" y1="557.445" x2="506.329" y2="522.895"/>
    <line x1="612.66" y1="557.445" x2="630.824" y2="501.543"/>
    <line x1="648.988" y1="557.445" x2="707.766" y2="557.445"/>
    <line x1="707.766" y1="557.445" x2="725.93" y2="501.543"/>
    <line x1="802.872" y1="557.445" x2="861.65" y2="557.445"/>
    <line x1="802.872" y1="557.445" x2="755.319" y2="522.895"/>
    <line x1="861.65" y1="557.445" x2="879.814" y2="501.543"/>
    <line x1="861.65" y1="557.445" x2="879.814" y2="613.346"/>
    <line x1="956.756" y1="557.445" x2="1004.309" y2="522.895"/>
    <line x1="1218.507" y1="557.445" x2="1205.746" y2="557.445"/>
    <line x1="55.902" y1="557.445" x2="74.066" y2="613.346"/>
    <line x1="1051.862" y1="557.445" x2="1033.698" y2="613.346"/>
    <line x1="1015.534" y1="557.445" x2="956.756" y2="557.445"/>
    <line x1="1110.64" y1="557.445" x2="1051.862" y2="557.445"/>
    <line x1="1205.746" y1="557.445" x2="1158.193" y2="522.895"/>
    <line x1="1110.64" y1="557.445" x2="1158.193" y2="522.895"/>
    <line x1="132.844" y1="613.346" x2="180.397" y2="647.895"/>
    <line x1="74.066" y1="613.346" x2="63.742" y2="620.847"/>
    <line x1="227.95" y1="613.346" x2="275.503" y2="647.895"/>
    <line x1="227.95" y1="613.346" x2="209.786" y2="557.445"/>
    <line x1="381.834" y1="613.346" x2="429.387" y2="647.895"/>
    <line x1="381.834" y1="613.346" x2="334.281" y2="647.895"/>
    <line x1="323.056" y1="613.346" x2="381.834" y2="613.346"/>
    <line x1="535.718" y1="613.346" x2="583.271" y2="647.895"/>
    <line x1="630.824" y1="613.346" x2="678.377" y2="647.895"/>
    <line x1="784.708" y1="613.346" x2="832.261" y2="647.895"/>
    <line x1="381.834" y1="613.346" x2="399.998" y2="557.445"/>
    <line x1="476.94" y1="613.346" x2="535.718" y2="613.346"/>
    <line x1="725.93" y1="613.346" x2="784.708" y2="613.346"/>
    <line x1="784.708" y1="613.346" x2="737.155" y2="647.895"/>
    <line x1="938.592" y1="613.346" x2="986.145" y2="647.895"/>
    <line x1="535.718" y1="613.346" x2="553.882" y2="557.445"/>
    <line x1="784.708" y1="613.346" x2="802.872" y2="557.445"/>
    <line x1="879.814" y1="613.346" x2="938.592" y2="613.346"/>
    <line x1="630.824" y1="613.346" x2="612.66" y2="557.445"/>
    <line x1="1033.698" y1="613.346" x2="1081.251" y2="647.895"/>
    <line x1="74.066" y1="613.346" x2="132.844" y2="613.346"/>
    <line x1="938.592" y1="613.346" x2="956.756" y2="557.445"/>
    <line x1="1187.582" y1="613.346" x2="1140.029" y2="647.895"/>
    <line x1="1033.698" y1="613.346" x2="1015.534" y2="557.445"/>
    <line x1="1128.804" y1="613.346" x2="1110.64" y2="557.445"/>
    <line x1="1128.804" y1="613.346" x2="1187.582" y2="613.346"/>
    <line x1="1187.582" y1="613.346" x2="1205.746" y2="557.445"/>
    <line x1="1197.906" y1="620.847" x2="1187.582" y2="613.346"/>
    <line x1="180.397" y1="647.895" x2="227.95" y2="613.346"/>
    <line x1="121.619" y1="647.895" x2="103.455" y2="703.797"/>
    <line x1="121.619" y1="647.895" x2="74.066" y2="613.346"/>
    <line x1="180.397" y1="647.895" x2="198.561" y2="703.797"/>
    <line x1="275.503" y1="647.895" x2="323.056" y2="613.346"/>
    <line x1="334.281" y1="647.895" x2="352.445" y2="703.797"/>
    <line x1="180.397" y1="647.895" x2="121.619" y2="647.895"/>
    <line x1="334.281" y1="647.895" x2="275.503" y2="647.895"/>
    <line x1="429.387" y1="647.895" x2="476.94" y2="613.346"/>
    <line x1="429.387" y1="647.895" x2="447.551" y2="703.797"/>
    <line x1="524.493" y1="647.895" x2="476.94" y2="613.346"/>
    <line x1="583.271" y1="647.895" x2="601.435" y2="703.797"/>
    <line x1="583.271" y1="647.895" x2="524.493" y2="647.895"/>
    <line x1="737.155" y1="647.895" x2="755.319" y2="703.797"/>
    <line x1="583.271" y1="647.895" x2="630.824" y2="613.346"/>
    <line x1="678.377" y1="647.895" x2="725.93" y2="613.346"/>
    <line x1="737.155" y1="647.895" x2="678.377" y2="647.895"/>
    <line x1="832.261" y1="647.895" x2="879.814" y2="613.346"/>
    <line x1="832.261" y1="647.895" x2="850.425" y2="703.797"/>
    <line x1="986.145" y1="647.895" x2="1004.309" y2="703.797"/>
    <line x1="986.145" y1="647.895" x2="927.367" y2="647.895"/>
    <line x1="1140.029" y1="647.895" x2="1081.251" y2="647.895"/>
    <line x1="927.367" y1="647.895" x2="879.814" y2="613.346"/>
    <line x1="986.145" y1="647.895" x2="1033.698" y2="613.346"/>
    <line x1="1081.251" y1="647.895" x2="1128.804" y2="613.346"/>
    <line x1="103.455" y1="703.797" x2="93.131" y2="711.298"/>
    <line x1="90.694" y1="703.797" x2="103.455" y2="703.797"/>
    <line x1="103.455" y1="703.797" x2="151.008" y2="738.346"/>
    <line x1="257.339" y1="703.797" x2="304.892" y2="738.346"/>
    <line x1="198.561" y1="703.797" x2="180.397" y2="759.699"/>
    <line x1="198.561" y1="703.797" x2="257.339" y2="703.797"/>
    <line x1="506.329" y1="703.797" x2="553.882" y2="738.346"/>
    <line x1="257.339" y1="703.797" x2="275.503" y2="647.895"/>
    <line x1="352.445" y1="703.797" x2="411.223" y2="703.797"/>
    <line x1="411.223" y1="703.797" x2="429.387" y2="647.895"/>
    <line x1="447.551" y1="703.797" x2="506.329" y2="703.797"/>
    <line x1="660.213" y1="703.797" x2="707.766" y2="738.346"/>
    <line x1="601.435" y1="703.797" x2="583.271" y2="759.699"/>
    <line x1="909.203" y1="703.797" x2="956.756" y2="738.346"/>
    <line x1="1063.087" y1="703.797" x2="1110.64" y2="738.346"/>
    <line x1="506.329" y1="703.797" x2="524.493" y2="647.895"/>
    <line x1="506.329" y1="703.797" x2="458.776" y2="738.346"/>
    <line x1="601.435" y1="703.797" x2="660.213" y2="703.797"/>
    <line x1="660.213" y1="703.797" x2="678.377" y2="647.895"/>
    <line x1="755.319" y1="703.797" x2="814.097" y2="703.797"/>
    <line x1="909.203" y1="703.797" x2="861.65" y2="738.346"/>
    <line x1="814.097" y1="703.797" x2="832.261" y2="647.895"/>
    <line x1="850.425" y1="703.797" x2="909.203" y2="703.797"/>
    <line x1="909.203" y1="703.797" x2="927.367" y2="647.895"/>
    <line x1="1004.309" y1="703.797" x2="1063.087" y2="703.797"/>
    <line x1="1063.087" y1="703.797" x2="1081.251" y2="647.895"/>
    <line x1="1158.193" y1="703.797" x2="1140.029" y2="647.895"/>
    <line x1="1004.309" y1="703.797" x2="986.145" y2="759.699"/>
    <line x1="1158.193" y1="703.797" x2="1170.954" y2="703.797"/>
    <line x1="1168.517" y1="711.298" x2="1158.193" y2="703.797"/>
    <line x1="1110.64" y1="738.346" x2="1128.804" y2="794.248"/>
    <line x1="151.008" y1="738.346" x2="198.561" y2="703.797"/>
    <line x1="304.892" y1="738.346" x2="352.445" y2="703.797"/>
    <line x1="304.892" y1="738.346" x2="323.056" y2="794.248"/>
    <line x1="399.998" y1="738.346" x2="352.445" y2="703.797"/>
    <line x1="458.776" y1="738.346" x2="476.94" y2="794.248"/>
    <line x1="553.882" y1="738.346" x2="601.435" y2="703.797"/>
    <line x1="707.766" y1="738.346" x2="725.93" y2="794.248"/>
    <line x1="707.766" y1="738.346" x2="755.319" y2="703.797"/>
    <line x1="861.65" y1="738.346" x2="879.814" y2="794.248"/>
    <line x1="956.756" y1="738.346" x2="1004.309" y2="703.797"/>
    <line x1="1110.64" y1="738.346" x2="1158.193" y2="703.797"/>
    <line x1="802.872" y1="738.346" x2="755.319" y2="703.797"/>
    <line x1="180.397" y1="759.699" x2="227.95" y2="794.248"/>
    <line x1="180.397" y1="759.699" x2="132.844" y2="794.248"/>
    <line x1="275.503" y1="759.699" x2="257.339" y2="703.797"/>
    <line x1="429.387" y1="759.699" x2="381.834" y2="794.248"/>
    <line x1="583.271" y1="759.699" x2="630.824" y2="794.248"/>
    <line x1="583.271" y1="759.699" x2="535.718" y2="794.248"/>
    <line x1="832.261" y1="759.699" x2="784.708" y2="794.248"/>
    <line x1="678.377" y1="759.699" x2="660.213" y2="703.797"/>
    <line x1="986.145" y1="759.699" x2="1033.698" y2="794.248"/>
    <line x1="1081.251" y1="759.699" x2="1063.087" y2="703.797"/>
    <line x1="120.083" y1="794.248" x2="132.844" y2="794.248"/>
    <line x1="132.844" y1="794.248" x2="151.008" y2="738.346"/>
    <line x1="132.844" y1="794.248" x2="151.008" y2="850.15"/>
    <line x1="1128.804" y1="794.248" x2="1141.565" y2="794.248"/>
    <line x1="227.95" y1="794.248" x2="275.503" y2="759.699"/>
    <line x1="323.056" y1="794.248" x2="381.834" y2="794.248"/>
    <line x1="381.834" y1="794.248" x2="399.998" y2="738.346"/>
    <line x1="381.834" y1="794.248" x2="399.998" y2="850.15"/>
    <line x1="535.718" y1="794.248" x2="553.882" y2="850.15"/>
    <line x1="630.824" y1="794.248" x2="648.988" y2="850.15"/>
    <line x1="784.708" y1="794.248" x2="802.872" y2="850.15"/>
    <line x1="227.95" y1="794.248" x2="209.786" y2="850.15"/>
    <line x1="286.728" y1="794.248" x2="227.95" y2="794.248"/>
    <line x1="323.056" y1="794.248" x2="304.892" y2="850.15"/>
    <line x1="476.94" y1="794.248" x2="535.718" y2="794.248"/>
    <line x1="476.94" y1="794.248" x2="429.387" y2="759.699"/>
    <line x1="535.718" y1="794.248" x2="553.882" y2="738.346"/>
    <line x1="630.824" y1="794.248" x2="678.377" y2="759.699"/>
    <line x1="725.93" y1="794.248" x2="784.708" y2="794.248"/>
    <line x1="725.93" y1="794.248" x2="678.377" y2="759.699"/>
    <line x1="784.708" y1="794.248" x2="802.872" y2="738.346"/>
    <line x1="879.814" y1="794.248" x2="832.261" y2="759.699"/>
    <line x1="879.814" y1="794.248" x2="938.592" y2="794.248"/>
    <line x1="938.592" y1="794.248" x2="956.756" y2="738.346"/>
    <line x1="974.919" y1="794.248" x2="956.756" y2="850.15"/>
    <line x1="1033.698" y1="794.248" x2="974.919" y2="794.248"/>
    <line x1="1033.698" y1="794.248" x2="1081.251" y2="759.699"/>
    <line x1="1128.804" y1="794.248" x2="1081.251" y2="759.699"/>
    <line x1="151.008" y1="850.15" x2="209.786" y2="850.15"/>
    <line x1="151.008" y1="850.15" x2="140.684" y2="857.65"/>
    <line x1="399.998" y1="850.15" x2="458.776" y2="850.15"/>
    <line x1="458.776" y1="850.15" x2="411.223" y2="884.699"/>
    <line x1="553.882" y1="850.15" x2="612.66" y2="850.15"/>
    <line x1="648.988" y1="850.15" x2="707.766" y2="850.15"/>
    <line x1="707.766" y1="850.15" x2="660.213" y2="884.699"/>
    <line x1="802.872" y1="850.15" x2="861.65" y2="850.15"/>
    <line x1="209.786" y1="850.15" x2="257.339" y2="884.699"/>
    <line x1="304.892" y1="850.15" x2="286.728" y2="794.248"/>
    <line x1="304.892" y1="850.15" x2="352.445" y2="884.699"/>
    <line x1="458.776" y1="850.15" x2="476.94" y2="794.248"/>
    <line x1="458.776" y1="850.15" x2="506.329" y2="884.699"/>
    <line x1="612.66" y1="850.15" x2="630.824" y2="794.248"/>
    <line x1="707.766" y1="850.15" x2="725.93" y2="794.248"/>
    <line x1="707.766" y1="850.15" x2="755.319" y2="884.699"/>
    <line x1="861.65" y1="850.15" x2="879.814" y2="794.248"/>
    <line x1="861.65" y1="850.15" x2="909.203" y2="884.699"/>
    <line x1="956.756" y1="850.15" x2="1004.309" y2="884.699"/>
    <line x1="956.756" y1="850.15" x2="938.592" y2="794.248"/>
    <line x1="1051.862" y1="850.15" x2="1033.698" y2="794.248"/>
    <line x1="1051.862" y1="850.15" x2="1110.64" y2="850.15"/>
    <line x1="1110.64" y1="850.15" x2="1128.804" y2="794.248"/>
    <line x1="1110.64" y1="850.15" x2="1063.087" y2="884.699"/>
    <line x1="1120.964" y1="857.65" x2="1110.64" y2="850.15"/>
    <line x1="198.561" y1="884.699" x2="180.397" y2="940.601"/>
    <line x1="198.561" y1="884.699" x2="151.008" y2="850.15"/>
    <line x1="257.339" y1="884.699" x2="275.503" y2="940.601"/>
    <line x1="257.339" y1="884.699" x2="198.561" y2="884.699"/>
    <line x1="411.223" y1="884.699" x2="429.387" y2="940.601"/>
    <line x1="411.223" y1="884.699" x2="352.445" y2="884.699"/>
    <line x1="506.329" y1="884.699" x2="524.493" y2="940.601"/>
    <line x1="601.435" y1="884.699" x2="553.882" y2="850.15"/>
    <line x1="660.213" y1="884.699" x2="678.377" y2="940.601"/>
    <line x1="909.203" y1="884.699" x2="927.367" y2="940.601"/>
    <line x1="257.339" y1="884.699" x2="304.892" y2="850.15"/>
    <line x1="352.445" y1="884.699" x2="399.998" y2="850.15"/>
    <line x1="506.329" y1="884.699" x2="553.882" y2="850.15"/>
    <line x1="755.319" y1="884.699" x2="773.482" y2="940.601"/>
    <line x1="755.319" y1="884.699" x2="802.872" y2="850.15"/>
    <line x1="850.425" y1="884.699" x2="802.872" y2="850.15"/>
    <line x1="909.203" y1="884.699" x2="850.425" y2="884.699"/>
    <line x1="909.203" y1="884.699" x2="956.756" y2="850.15"/>
    <line x1="1004.309" y1="884.699" x2="1051.862" y2="850.15"/>
    <line x1="1063.087" y1="884.699" x2="1004.309" y2="884.699"/>
    <line x1="630.824" y1="906.051" x2="583.271" y2="940.601"/>
    <line x1="167.636" y1="940.601" x2="180.397" y2="940.601"/>
    <line x1="180.397" y1="940.601" x2="227.95" y2="975.15"/>
    <line x1="180.397" y1="940.601" x2="170.073" y2="948.101"/>
    <line x1="275.503" y1="940.601" x2="257.339" y2="996.502"/>
    <line x1="275.503" y1="940.601" x2="334.281" y2="940.601"/>
    <line x1="334.281" y1="940.601" x2="352.445" y2="884.699"/>
    <line x1="334.281" y1="940.601" x2="381.834" y2="975.15"/>
    <line x1="429.387" y1="940.601" x2="488.165" y2="940.601"/>
    <line x1="429.387" y1="940.601" x2="411.223" y2="996.502"/>
    <line x1="488.165" y1="940.601" x2="506.329" y2="884.699"/>
    <line x1="524.493" y1="940.601" x2="583.271" y2="940.601"/>
    <line x1="524.493" y1="940.601" x2="506.329" y2="996.502"/>
    <line x1="583.271" y1="940.601" x2="601.435" y2="884.699"/>
    <line x1="678.377" y1="940.601" x2="737.155" y2="940.601"/>
    <line x1="737.155" y1="940.601" x2="755.319" y2="884.699"/>
    <line x1="773.482" y1="940.601" x2="755.319" y2="996.502"/>
    <line x1="927.367" y1="940.601" x2="986.145" y2="940.601"/>
    <line x1="927.367" y1="940.601" x2="909.203" y2="996.502"/>
    <line x1="986.145" y1="940.601" x2="1004.309" y2="884.699"/>
    <line x1="583.271" y1="940.601" x2="601.435" y2="996.502"/>
    <line x1="678.377" y1="940.601" x2="630.824" y2="906.051"/>
    <line x1="773.482" y1="940.601" x2="832.261" y2="940.601"/>
    <line x1="832.261" y1="940.601" x2="850.425" y2="884.699"/>
    <line x1="832.261" y1="940.601" x2="879.814" y2="975.15"/>
    <line x1="986.145" y1="940.601" x2="1033.698" y2="975.15"/>
    <line x1="1081.251" y1="940.601" x2="1063.087" y2="884.699"/>
    <line x1="1081.251" y1="940.601" x2="1094.012" y2="940.601"/>
    <line x1="1091.575" y1="948.101" x2="1081.251" y2="940.601"/>
    <line x1="227.95" y1="975.15" x2="275.503" y2="940.601"/>
    <line x1="381.834" y1="975.15" x2="429.387" y2="940.601"/>
    <line x1="1033.698" y1="975.15" x2="1051.862" y2="1031.051"/>
    <line x1="879.814" y1="975.15" x2="927.367" y2="940.601"/>
    <line x1="1033.698" y1="975.15" x2="1081.251" y2="940.601"/>
    <line x1="257.339" y1="996.502" x2="304.892" y2="1031.051"/>
    <line x1="352.445" y1="996.502" x2="334.281" y2="940.601"/>
    <line x1="411.223" y1="996.502" x2="458.776" y2="1031.051"/>
    <line x1="506.329" y1="996.502" x2="553.882" y2="1031.051"/>
    <line x1="506.329" y1="996.502" x2="488.165" y2="940.601"/>
    <line x1="660.213" y1="996.502" x2="707.766" y2="1031.051"/>
    <line x1="755.319" y1="996.502" x2="737.155" y2="940.601"/>
    <line x1="755.319" y1="996.502" x2="802.872" y2="1031.051"/>
    <line x1="850.425" y1="996.502" x2="832.261" y2="940.601"/>
    <line x1="909.203" y1="996.502" x2="956.756" y2="1031.051"/>
    <line x1="1004.309" y1="996.502" x2="986.145" y2="940.601"/>
    <line x1="257.339" y1="996.502" x2="209.786" y2="1031.051"/>
    <line x1="601.435" y1="996.502" x2="660.213" y2="996.502"/>
    <line x1="660.213" y1="996.502" x2="678.377" y2="940.601"/>
    <line x1="304.892" y1="1031.051" x2="286.728" y2="1086.953"/>
    <line x1="399.998" y1="1031.051" x2="381.834" y2="1086.953"/>
    <line x1="458.776" y1="1031.051" x2="476.94" y2="1086.953"/>
    <line x1="648.988" y1="1031.051" x2="630.824" y2="1086.953"/>
    <line x1="897.977" y1="1031.051" x2="879.814" y2="1086.953"/>
    <line x1="197.025" y1="1031.051" x2="209.786" y2="1031.051"/>
    <line x1="209.786" y1="1031.051" x2="227.95" y2="1086.953"/>
    <line x1="209.786" y1="1031.051" x2="227.95" y2="975.15"/>
    <line x1="304.892" y1="1031.051" x2="352.445" y2="996.502"/>
    <line x1="363.671" y1="1031.051" x2="304.892" y2="1031.051"/>
    <line x1="458.776" y1="1031.051" x2="399.998" y2="1031.051"/>
    <line x1="458.776" y1="1031.051" x2="506.329" y2="996.502"/>
    <line x1="553.882" y1="1031.051" x2="601.435" y2="996.502"/>
    <line x1="612.66" y1="1031.051" x2="553.882" y2="1031.051"/>
    <line x1="707.766" y1="1031.051" x2="755.319" y2="996.502"/>
    <line x1="707.766" y1="1031.051" x2="725.93" y2="1086.953"/>
    <line x1="707.766" y1="1031.051" x2="648.988" y2="1031.051"/>
    <line x1="802.872" y1="1031.051" x2="850.425" y2="996.502"/>
    <line x1="861.65" y1="1031.051" x2="802.872" y2="1031.051"/>
    <line x1="956.756" y1="1031.051" x2="1004.309" y2="996.502"/>
    <line x1="956.756" y1="1031.051" x2="897.977" y2="1031.051"/>
    <line x1="1051.862" y1="1031.051" x2="1064.623" y2="1031.051"/>
    <line x1="1051.862" y1="1031.051" x2="1004.309" y2="996.502"/>
    <line x1="227.95" y1="1086.953" x2="221.569" y2="1106.59"/>
    <line x1="286.728" y1="1086.953" x2="334.281" y2="1121.502"/>
    <line x1="381.834" y1="1086.953" x2="429.387" y2="1121.502"/>
    <line x1="476.94" y1="1086.953" x2="535.718" y2="1086.953"/>
    <line x1="476.94" y1="1086.953" x2="458.776" y2="1142.855"/>
    <line x1="535.718" y1="1086.953" x2="583.271" y2="1121.502"/>
    <line x1="630.824" y1="1086.953" x2="678.377" y2="1121.502"/>
    <line x1="725.93" y1="1086.953" x2="707.766" y2="1142.855"/>
    <line x1="784.708" y1="1086.953" x2="832.261" y2="1121.502"/>
    <line x1="879.814" y1="1086.953" x2="927.367" y2="1121.502"/>
    <line x1="1033.698" y1="1086.953" x2="1044.022" y2="1094.454"/>
    <line x1="227.95" y1="1086.953" x2="286.728" y2="1086.953"/>
    <line x1="381.834" y1="1086.953" x2="363.671" y2="1031.051"/>
    <line x1="535.718" y1="1086.953" x2="553.882" y2="1031.051"/>
    <line x1="630.824" y1="1086.953" x2="612.66" y2="1031.051"/>
    <line x1="725.93" y1="1086.953" x2="784.708" y2="1086.953"/>
    <line x1="879.814" y1="1086.953" x2="861.65" y2="1031.051"/>
    <line x1="974.919" y1="1086.953" x2="1033.698" y2="1086.953"/>
    <line x1="974.919" y1="1086.953" x2="956.756" y2="1031.051"/>
    <line x1="974.919" y1="1086.953" x2="956.756" y2="1142.855"/>
    <line x1="784.708" y1="1086.953" x2="802.872" y2="1031.051"/>
    <line x1="1033.698" y1="1086.953" x2="1051.862" y2="1031.051"/>
    <line x1="217.626" y1="1094.454" x2="227.95" y2="1086.953"/>
    <line x1="1040.078" y1="1106.59" x2="1033.698" y2="1086.953"/>
    <line x1="334.281" y1="1121.502" x2="352.445" y2="1177.404"/>
    <line x1="583.271" y1="1121.502" x2="601.435" y2="1177.404"/>
    <line x1="334.281" y1="1121.502" x2="381.834" y2="1086.953"/>
    <line x1="429.387" y1="1121.502" x2="476.94" y2="1086.953"/>
    <line x1="583.271" y1="1121.502" x2="630.824" y2="1086.953"/>
    <line x1="678.377" y1="1121.502" x2="725.93" y2="1086.953"/>
    <line x1="832.261" y1="1121.502" x2="879.814" y2="1086.953"/>
    <line x1="832.261" y1="1121.502" x2="850.425" y2="1177.404"/>
    <line x1="927.367" y1="1121.502" x2="974.919" y2="1086.953"/>
    <line x1="458.776" y1="1142.855" x2="411.223" y2="1177.404"/>
    <line x1="458.776" y1="1142.855" x2="506.329" y2="1177.404"/>
    <line x1="707.766" y1="1142.855" x2="755.319" y2="1177.404"/>
    <line x1="956.756" y1="1142.855" x2="909.203" y2="1177.404"/>
    <line x1="304.892" y1="1142.855" x2="286.728" y2="1086.953"/>
    <line x1="553.882" y1="1142.855" x2="535.718" y2="1086.953"/>
    <line x1="707.766" y1="1142.855" x2="660.213" y2="1177.404"/>
    <line x1="802.872" y1="1142.855" x2="784.708" y2="1086.953"/>
    <line x1="956.756" y1="1142.855" x2="1004.309" y2="1177.404"/>
    <line x1="240.635" y1="1165.267" x2="257.339" y2="1177.404"/>
    <line x1="257.339" y1="1177.404" x2="261.131" y2="1189.073"/>
    <line x1="352.445" y1="1177.404" x2="411.223" y2="1177.404"/>
    <line x1="411.223" y1="1177.404" x2="415.015" y2="1189.073"/>
    <line x1="601.435" y1="1177.404" x2="660.213" y2="1177.404"/>
    <line x1="755.319" y1="1177.404" x2="759.11" y2="1189.073"/>
    <line x1="909.203" y1="1177.404" x2="912.995" y2="1189.073"/>
    <line x1="257.339" y1="1177.404" x2="304.892" y2="1142.855"/>
    <line x1="352.445" y1="1177.404" x2="304.892" y2="1142.855"/>
    <line x1="411.223" y1="1177.404" x2="429.387" y2="1121.502"/>
    <line x1="506.329" y1="1177.404" x2="553.882" y2="1142.855"/>
    <line x1="506.329" y1="1177.404" x2="510.121" y2="1189.073"/>
    <line x1="660.213" y1="1177.404" x2="678.377" y2="1121.502"/>
    <line x1="660.213" y1="1177.404" x2="664.005" y2="1189.073"/>
    <line x1="755.319" y1="1177.404" x2="802.872" y2="1142.855"/>
    <line x1="850.425" y1="1177.404" x2="909.203" y2="1177.404"/>
    <line x1="850.425" y1="1177.404" x2="802.872" y2="1142.855"/>
    <line x1="601.435" y1="1177.404" x2="553.882" y2="1142.855"/>
    <line x1="909.203" y1="1177.404" x2="927.367" y2="1121.502"/>
    <line x1="1004.309" y1="1177.404" x2="1021.013" y2="1165.267"/>
    <line x1="348.653" y1="1189.073" x2="352.445" y2="1177.404"/>
    <line x1="502.537" y1="1189.073" x2="506.329" y2="1177.404"/>
    <line x1="597.643" y1="1189.073" x2="601.435" y2="1177.404"/>
    <line x1="751.527" y1="1189.073" x2="755.319" y2="1177.404"/>
    <line x1="846.633" y1="1189.073" x2="850.425" y2="1177.404"/>
    <line x1="1000.517" y1="1189.073" x2="1004.309" y2="1177.404"/>
    </g>
  </g>
</svg>
